<?xml version="1.0" encoding="UTF-8"?>
<svg data-dc-tpl="545" width="70" height="84" viewBox="0 0 80 96" fill="none" style="flex-shrink: 0;" xmlns="http://www.w3.org/2000/svg"><defs data-dc-tpl="546"><linearGradient data-dc-tpl="547" id="cg-medium" x1="0" y1="0" x2="1" y2="1"><stop data-dc-tpl="548" offset="0" stop-color="#9d7bff"></stop><stop data-dc-tpl="549" offset="1" stop-color="#b7a0ff"></stop></linearGradient><linearGradient data-dc-tpl="550" id="cv-medium" x1="0" y1="0" x2="0" y2="1"><stop data-dc-tpl="551" offset="0" stop-color="#b7a0ff"></stop><stop data-dc-tpl="552" offset="1" stop-color="#9d7bff"></stop></linearGradient></defs><rect data-dc-tpl="553" x="2" y="2" width="76" height="92" rx="10" fill="#9d7bff" opacity="0.08"></rect><rect data-dc-tpl="554" x="2.5" y="2.5" width="75" height="91" rx="9.5" stroke="#9d7bff" stroke-width="1" opacity="0.45"></rect><rect data-dc-tpl="555" x="23" y="40" width="6" height="36" rx="3" fill="#1a2138"></rect><rect data-dc-tpl="556" x="51" y="40" width="6" height="36" rx="3" fill="#1a2138"></rect><path data-dc-tpl="557" d="M40 46 L13 70 L20 77 L40 62 L60 77 L67 70 Z" fill="#9d7bff" opacity="0.85"></path><path data-dc-tpl="558" d="M40 16 L49 42 L46 80 L34 80 L31 42 Z" fill="#2a3352" stroke="#9d7bff" stroke-width="1.4"></path><path data-dc-tpl="559" d="M40 11 L47 32 L33 32 Z" fill="url(#cg-medium)"></path><ellipse data-dc-tpl="560" cx="40" cy="42" rx="5" ry="9" fill="url(#cv-medium)"></ellipse><rect data-dc-tpl="561" x="34" y="78" width="12" height="5" rx="2" fill="#b7a0ff"></rect><rect data-dc-tpl="562" x="24" y="73" width="4" height="4" fill="#b7a0ff"></rect><rect data-dc-tpl="563" x="52" y="73" width="4" height="4" fill="#b7a0ff"></rect></svg>