<?xml version="1.0" encoding="UTF-8"?>
<svg data-dc-tpl="581" width="70" height="84" viewBox="0 0 80 96" fill="none" style="flex-shrink: 0;" xmlns="http://www.w3.org/2000/svg"><defs data-dc-tpl="582"><linearGradient data-dc-tpl="583" id="cg-marauder" x1="0" y1="0" x2="1" y2="1"><stop data-dc-tpl="584" offset="0" stop-color="#8893bc"></stop><stop data-dc-tpl="585" offset="1" stop-color="#5f6a91"></stop></linearGradient><linearGradient data-dc-tpl="586" id="cv-marauder" x1="0" y1="0" x2="0" y2="1"><stop data-dc-tpl="587" offset="0" stop-color="#8893bc"></stop><stop data-dc-tpl="588" offset="1" stop-color="#5f6a91"></stop></linearGradient></defs><rect data-dc-tpl="589" x="2" y="2" width="76" height="92" rx="10" fill="#8893bc" opacity="0.08"></rect><rect data-dc-tpl="590" x="2.5" y="2.5" width="75" height="91" rx="9.5" stroke="#8893bc" stroke-width="1" opacity="0.45"></rect><path data-dc-tpl="591" d="M40 12 L62 24 L62 56 L40 74 L18 56 L18 24 Z" fill="#241a2e"></path><path data-dc-tpl="592" d="M40 12 L62 24 L62 56 L40 74 L18 56 L18 24 Z" stroke="#8893bc" stroke-width="1.4" opacity="0.8"></path><path data-dc-tpl="593" d="M40 12 L40 74 M18 24 L40 34 L62 24" stroke="#8893bc" stroke-width="0.7" opacity="0.35" fill="none"></path><path data-dc-tpl="594" d="M25 40 L38 44 L38 33 Z" fill="url(#cv-marauder)"></path><path data-dc-tpl="595" d="M55 40 L42 44 L42 33 Z" fill="url(#cv-marauder)"></path><path data-dc-tpl="596" d="M33 57 L47 57 L44 66 L36 66 Z" fill="#120e18" stroke="#8893bc" stroke-width="0.8" opacity="0.7"></path><path data-dc-tpl="597" d="M36 58 L36 65 M40 58 L40 66 M44 58 L44 65" stroke="#8893bc" stroke-width="0.8" opacity="0.6"></path><text data-dc-tpl="598" x="40" y="88" text-anchor="middle" font-family="Space Grotesk, sans-serif" font-size="11" font-weight="700" fill="#8893bc" opacity="0.9"><span class="sc-interp">✕</span></text></svg>