<?xml version="1.0" encoding="UTF-8"?>
<svg data-dc-tpl="507" width="70" height="84" viewBox="0 0 80 96" fill="none" style="flex-shrink: 0;" xmlns="http://www.w3.org/2000/svg"><defs data-dc-tpl="508"><linearGradient data-dc-tpl="509" id="cg-sora" x1="0" y1="0" x2="1" y2="1"><stop data-dc-tpl="510" offset="0" stop-color="#9d7bff"></stop><stop data-dc-tpl="511" offset="1" stop-color="#5ee3ff"></stop></linearGradient><linearGradient data-dc-tpl="512" id="cv-sora" x1="0" y1="0" x2="0" y2="1"><stop data-dc-tpl="513" offset="0" stop-color="#5ee3ff"></stop><stop data-dc-tpl="514" offset="1" stop-color="#9d7bff"></stop></linearGradient></defs><rect data-dc-tpl="515" x="2" y="2" width="76" height="92" rx="10" fill="#9d7bff" opacity="0.08"></rect><rect data-dc-tpl="516" x="2.5" y="2.5" width="75" height="91" rx="9.5" stroke="#9d7bff" stroke-width="1" opacity="0.45"></rect><path data-dc-tpl="517" d="M14 94 Q17 74 40 72 Q63 74 66 94 Z" fill="#1a2138"></path><path data-dc-tpl="518" d="M22 94 L24 80 M58 94 L56 80" stroke="#9d7bff" stroke-width="1.6" opacity="0.55"></path><path data-dc-tpl="519" d="M40 13 C57 13 65 27 65 43 C65 59 56 71 40 71 C24 71 15 59 15 43 C15 27 23 13 40 13 Z" fill="#2a3352"></path><path data-dc-tpl="520" d="M40 13 C57 13 65 27 65 43 C65 59 56 71 40 71 C24 71 15 59 15 43 C15 27 23 13 40 13 Z" stroke="#9d7bff" stroke-width="1.4" opacity="0.75"></path><path data-dc-tpl="521" d="M33 13 Q40 6 47 13 L45 21 L35 21 Z" fill="url(#cg-sora)"></path><path data-dc-tpl="522" d="M23 37 C30 30 50 30 57 37 C58 47 52 55 40 55 C28 55 22 47 23 37 Z" fill="url(#cv-sora)"></path><path data-dc-tpl="523" d="M27 38 C33 34 47 34 53 38" stroke="#F6F8FF" stroke-width="1.3" opacity="0.55" fill="none"></path><rect data-dc-tpl="524" x="31" y="57" width="18" height="9" rx="3" fill="#141c30" stroke="#9d7bff" stroke-width="1" opacity="0.85"></rect><circle data-dc-tpl="525" cx="36" cy="61.5" r="1.3" fill="#5ee3ff"></circle><circle data-dc-tpl="526" cx="44" cy="61.5" r="1.3" fill="#5ee3ff"></circle><rect data-dc-tpl="527" x="13" y="40" width="5" height="13" rx="2" fill="#9d7bff" opacity="0.8"></rect><rect data-dc-tpl="528" x="62" y="40" width="5" height="13" rx="2" fill="#9d7bff" opacity="0.8"></rect><text data-dc-tpl="529" x="40" y="88" text-anchor="middle" font-family="Space Grotesk, sans-serif" font-size="11" font-weight="700" fill="#9d7bff" opacity="0.9"><span class="sc-interp">S</span></text></svg>